<?xml version="1.0" encoding="utf-8"?>
<!-- Generator: Adobe Illustrator 24.1.2, SVG Export Plug-In . SVG Version: 6.00 Build 0)  -->
<svg version="1.1" id="Layer_1" xmlns="http://www.w3.org/2000/svg" xmlns:xlink="http://www.w3.org/1999/xlink" x="0px" y="0px"
	 viewBox="0 0 637.7 190.7" style="enable-background:new 0 0 637.7 190.7;" xml:space="preserve">
<style type="text/css">
	.st0{fill:#82CA2A;}
	.st1{clip-path:url(#SVGID_2_);fill:none;stroke:#000000;stroke-width:12.7559;stroke-miterlimit:10;}
	.st2{fill:#FFFFFF;}
</style>
<g>
	<path class="st0" d="M78,23.7c-17.2,0-52.9,46.6-52.9,86.4c0,29.2,23.7,52.9,52.9,52.9c29.2,0,52.9-23.7,52.9-52.9
		C130.9,70.2,95.2,23.7,78,23.7z"/>
	<g>
		<defs>
			<path id="SVGID_1_" d="M78,23.7c-17.2,0-52.9,46.6-52.9,86.4c0,29.2,23.7,52.9,52.9,52.9c29.2,0,52.9-23.7,52.9-52.9
				C130.9,70.2,95.2,23.7,78,23.7z"/>
		</defs>
		<clipPath id="SVGID_2_">
			<use xlink:href="#SVGID_1_"  style="overflow:visible;"/>
		</clipPath>
		<polyline class="st1" points="135.9,75.6 111.2,100.2 95,84 78.8,100.2 62.2,83.6 44.8,101 19.4,75.6 		"/>
	</g>
	<g>
		<g>
			<g>
				<path class="st2" d="M162.9,38.5h97.4v17.5l-64.4,76.1h65.4l-0.2,21.7H160.7v-17.6l64.6-76h-62.4V38.5z"/>
				<path class="st2" d="M301,29.7c2.6,2.6,3.9,6,3.9,10.2c0,4.2-1.3,7.6-3.9,10.2c-2.6,2.6-5.9,4-10,4c-4,0-7.2-1.3-9.8-4
					c-2.6-2.7-3.9-6.1-3.9-10.1c0-4.2,1.3-7.6,3.9-10.2c2.6-2.6,5.8-4,9.8-4C295.1,25.8,298.5,27.1,301,29.7z M278.6,65.2h25.4v88.6
					h-25.4V65.2z"/>
				<path class="st2" d="M468.9,73.3c5.8,6.1,8.7,14.4,8.7,24.8v55.7h-25.2v-48.3c0-5.7-1.5-10.2-4.6-13.3
					c-3.1-3.2-7.2-4.8-12.5-4.8c-6,0.1-10.8,2.3-14.3,6.4c-3.5,4.2-5.3,9.6-5.3,16.1v43.8h-25.2v-48.3c0-5.6-1.5-10-4.5-13.3
					c-3-3.2-7.2-4.9-12.4-4.9c-6,0.1-10.8,2.3-14.4,6.4c-3.6,4.2-5.4,9.6-5.4,16.1v43.8h-25.4V65.2h25.4v15.3
					c6.2-10.7,16.1-16.1,30-16.3c7.5,0,13.8,1.8,18.9,5.4c5.2,3.6,8.8,8.6,11,15.1c2.9-6.7,7-11.8,12.4-15.2
					c5.4-3.4,11.9-5.2,19.5-5.3C455.4,64.2,463.2,67.2,468.9,73.3z"/>
				<path class="st2" d="M522,29.7c2.6,2.6,3.9,6,3.9,10.2c0,4.2-1.3,7.6-3.9,10.2c-2.6,2.6-5.9,4-10,4c-4,0-7.2-1.3-9.8-4
					c-2.6-2.7-3.9-6.1-3.9-10.1c0-4.2,1.3-7.6,3.9-10.2c2.6-2.6,5.8-4,9.8-4C516.1,25.8,519.4,27.1,522,29.7z M499.5,65.2h25.4v88.6
					h-25.4V65.2z"/>
				<path class="st2" d="M604.1,148.9c-3.3,2-6.9,3.5-11,4.5c-4,1-8,1.6-12.1,1.6c-8.2,0-14.9-2.4-20.1-7.1
					c-5.2-4.7-7.7-11.5-7.7-20.3v-41h-12.4V69.1h12.4V44.7h25.2v24.4h24.1v17.6h-24.1v36.6c0,6.8,2.7,10.2,8.1,10.2
					c3.7,0,7.9-1.1,12.4-3.3L604.1,148.9z"/>
			</g>
			<g>
				<path d="M162.9,38.5h97.4v17.5l-64.4,76.1h65.4l-0.2,21.7H160.7v-17.6l64.6-76h-62.4V38.5z"/>
				<path d="M301,29.7c2.6,2.6,3.9,6,3.9,10.2c0,4.2-1.3,7.6-3.9,10.2c-2.6,2.6-5.9,4-10,4c-4,0-7.2-1.3-9.8-4
					c-2.6-2.7-3.9-6.1-3.9-10.1c0-4.2,1.3-7.6,3.9-10.2c2.6-2.6,5.8-4,9.8-4C295.1,25.8,298.5,27.1,301,29.7z M278.6,65.2h25.4v88.6
					h-25.4V65.2z"/>
				<path d="M468.9,73.3c5.8,6.1,8.7,14.4,8.7,24.8v55.7h-25.2v-48.3c0-5.7-1.5-10.2-4.6-13.3c-3.1-3.2-7.2-4.8-12.5-4.8
					c-6,0.1-10.8,2.3-14.3,6.4c-3.5,4.2-5.3,9.6-5.3,16.1v43.8h-25.2v-48.3c0-5.6-1.5-10-4.5-13.3c-3-3.2-7.2-4.9-12.4-4.9
					c-6,0.1-10.8,2.3-14.4,6.4c-3.6,4.2-5.4,9.6-5.4,16.1v43.8h-25.4V65.2h25.4v15.3c6.2-10.7,16.1-16.1,30-16.3
					c7.5,0,13.8,1.8,18.9,5.4c5.2,3.6,8.8,8.6,11,15.1c2.9-6.7,7-11.8,12.4-15.2c5.4-3.4,11.9-5.2,19.5-5.3
					C455.4,64.2,463.2,67.2,468.9,73.3z"/>
				<path class="st0" d="M522,29.7c2.6,2.6,3.9,6,3.9,10.2c0,4.2-1.3,7.6-3.9,10.2c-2.6,2.6-5.9,4-10,4c-4,0-7.2-1.3-9.8-4
					c-2.6-2.7-3.9-6.1-3.9-10.1c0-4.2,1.3-7.6,3.9-10.2c2.6-2.6,5.8-4,9.8-4C516.1,25.8,519.4,27.1,522,29.7z M499.5,65.2h25.4v88.6
					h-25.4V65.2z"/>
				<path class="st0" d="M604.1,148.9c-3.3,2-6.9,3.5-11,4.5c-4,1-8,1.6-12.1,1.6c-8.2,0-14.9-2.4-20.1-7.1
					c-5.2-4.7-7.7-11.5-7.7-20.3v-41h-12.4V69.1h12.4V44.7h25.2v24.4h24.1v17.6h-24.1v36.6c0,6.8,2.7,10.2,8.1,10.2
					c3.7,0,7.9-1.1,12.4-3.3L604.1,148.9z"/>
			</g>
		</g>
	</g>
</g>
</svg>
